<?xml version="1.0" encoding="iso-8859-1"?>
<!-- Uploaded to: SVG Repo, www.svgrepo.com, Generator: SVG Repo Mixer Tools -->
<svg height="800px" width="800px" version="1.1" id="Layer_1" xmlns="http://www.w3.org/2000/svg" xmlns:xlink="http://www.w3.org/1999/xlink" 
	 viewBox="0 0 433.72 433.72" xml:space="preserve">
<g>
	<path style="fill:#EF806F;" d="M406.03,251.19c17.06,16.37,27.69,39.41,27.69,64.93c0,49.71-40.3,90-90,90c-49.71,0-90-40.29-90-90
		c0-3.53,0.2-7,0.6-10.42c5.16-44.79,43.22-79.58,89.4-79.58C367.9,226.12,389.86,235.65,406.03,251.19z"/>
	<path style="fill:#1EA6C6;" d="M412.91,216.89c0,7.16-0.85,14.12-2.46,20.79c-18.61-15.89-42.07-24.56-66.73-24.56
		c-52.35,0-96.33,39.16-102.31,91.07c-0.06,0.48-0.11,0.96-0.16,1.44H70.99C31.78,305.63,0,273.84,0,234.64
		c0-30.52,19.26-56.54,46.29-66.57c-0.1-1.46-0.16-2.94-0.16-4.42c0-36.41,29.51-65.92,65.92-65.92c11.66,0,22.61,3.04,32.12,8.36
		c10.19-44.94,50.38-78.49,98.4-78.49c55.73,0,100.91,45.18,100.91,100.91c0,0.58-0.02,1.16-0.03,1.75
		C383.19,139.06,412.91,174.5,412.91,216.89z"/>
	<polygon style="fill:#FFFFFF;" points="351.217,383.653 351.217,277.309 378.012,304.103 388.619,293.497 343.717,248.596 
		298.816,293.497 309.423,304.103 336.217,277.309 336.217,383.653 	"/>
</g>
</svg>