<svg width="26" height="20" viewBox="0 0 26 20" fill="none" xmlns="http://www.w3.org/2000/svg">
<path d="M1 5.11429C1 3.67414 1 2.95408 1.29065 2.40403C1.54631 1.92017 1.95425 1.5268 2.45603 1.28027C3.02645 1 3.7732 1 5.26667 1H9.89936C10.5516 1 10.8777 1 11.1847 1.07105C11.4567 1.13404 11.7168 1.23793 11.9555 1.37893C12.2245 1.53794 12.4552 1.76031 12.9164 2.20505L13.0836 2.36638C13.5448 2.81112 13.7755 3.03349 14.0445 3.1925C14.2832 3.33349 14.5433 3.43739 14.8153 3.50038C15.1223 3.57143 15.4484 3.57143 16.1007 3.57143H20.7333C22.2268 3.57143 22.9736 3.57143 23.544 3.8517C24.0457 4.09822 24.4537 4.4916 24.7093 4.97545C25 5.52551 25 6.24559 25 7.68571V14.8857C25 16.3258 25 17.046 24.7093 17.596C24.4537 18.0798 24.0457 18.4732 23.544 18.7197C22.9736 19 22.2268 19 20.7333 19H5.26667C3.77319 19 3.02645 19 2.45603 18.7197C1.95425 18.4732 1.54631 18.0798 1.29065 17.596C1 17.046 1 16.3258 1 14.8857V5.11429Z" stroke="black" stroke-width="1.33" stroke-linecap="round" stroke-linejoin="round"/>
</svg>
