<svg width="33" height="35" viewBox="0 0 33 35" fill="none" xmlns="http://www.w3.org/2000/svg">
<path d="M28.6273 5.66327C28.2989 5.34019 27.9623 5.01173 27.6312 4.67788C27.2973 4.34673 26.9689 4.01019 26.6458 3.68173C24.3412 1.33 22.9694 0 21.5385 0H10.8312C7.8629 0 5.44656 2.41635 5.44656 5.38462V15.0769H8.03521V5.36846C8.03521 3.88231 9.24136 2.67615 10.7275 2.67615L20.5908 2.67077C21.5614 2.91846 21.5479 4.11115 21.5479 5.30519V9.40692C21.5479 10.1487 22.1523 10.7531 22.8941 10.7531H26.9325C28.276 10.7531 29.6248 10.7598 29.6248 12.0992V29.6154C29.6248 31.1015 28.4187 32.3077 26.9325 32.3077H10.7275C9.24136 32.3077 8.03521 31.1015 8.03521 29.6154V25.3077H5.4129V29.6154C5.4129 32.5837 7.82925 35 10.7975 35H26.9231C29.8914 35 32.3077 32.5837 32.3077 29.6154V10.7692C32.3077 9.33962 30.9777 7.96654 28.6273 5.66327Z" fill="#030104"/>
<path d="M5.07234 17.8177C4.87849 17.8177 4.74657 17.8258 4.65503 17.8392V19.7508C4.73714 19.7602 4.83407 19.7642 4.96195 19.7642C5.67407 19.7642 6.08195 19.3886 6.08195 18.7344C6.08195 17.9779 5.53138 17.8177 5.07234 17.8177Z" fill="#030104"/>
<path d="M25.5769 14.8077H1.34615C0.604423 14.8077 0 15.4121 0 16.1539V24.2308C0 24.9725 0.604423 25.5769 1.34615 25.5769H25.5769C26.3187 25.5769 26.9231 24.9725 26.9231 24.2308V16.1539C26.9231 15.4121 26.3187 14.8077 25.5769 14.8077ZM7.35673 20.6541C6.80212 21.2275 5.97692 21.5277 4.97135 21.5277C4.85288 21.5277 4.74923 21.5223 4.65635 21.5156V24.0289C4.65635 24.1487 4.56212 24.2442 4.44231 24.2442H2.90231C2.78115 24.2442 2.68692 24.1487 2.68692 24.0289V16.4379C2.68692 16.3369 2.76096 16.2481 2.86058 16.2292C3.43135 16.1216 4.15019 16.0664 5.00231 16.0664C6.00654 16.0664 6.74019 16.2858 7.24365 16.7367C7.75385 17.1769 8.05 17.8864 8.05 18.6752C8.04865 19.4977 7.80231 20.2017 7.35673 20.6541ZM15.536 24.0302C15.536 24.15 15.4404 24.2456 15.3233 24.2456H13.6904C13.6083 24.2456 13.5342 24.1971 13.4965 24.1244L12.0279 21.1562C11.8017 20.6985 11.515 20.0981 11.2471 19.4694C11.2633 20.1398 11.274 20.8762 11.274 21.7135V24.0302C11.274 24.15 11.1771 24.2456 11.06 24.2456H9.63308C9.51462 24.2456 9.41904 24.15 9.41904 24.0302V16.3383C9.41904 16.2185 9.51462 16.1242 9.63308 16.1242H11.4477C11.5285 16.1242 11.6012 16.1687 11.6388 16.2427L13.0671 19.0616C13.2812 19.4856 13.5019 19.9716 13.7146 20.4858C13.6917 19.9137 13.681 19.2877 13.681 18.5756V16.3396C13.681 16.2198 13.7752 16.1256 13.8963 16.1256H15.3246C15.4417 16.1256 15.5373 16.2198 15.5373 16.3396L15.536 24.0302ZM24.2631 23.6762C24.2631 23.765 24.2079 23.8458 24.1244 23.8767C23.555 24.0935 22.6342 24.3237 21.7512 24.3237C20.4588 24.3237 19.4963 23.9642 18.8058 23.2279C18.1435 22.5117 17.7773 21.4617 17.7773 20.2744C17.7867 17.7033 19.4129 16.0435 21.9154 16.0435C22.8308 16.0435 23.551 16.2427 23.9198 16.4312C24.0073 16.4756 24.0531 16.5739 24.0329 16.6721L23.7058 18.0762C23.6896 18.1394 23.6479 18.1933 23.586 18.2202C23.5254 18.2485 23.4567 18.2471 23.3988 18.2175C23.1027 18.0654 22.6948 17.9092 21.906 17.9092C20.611 17.9092 19.8369 18.7573 19.8369 20.1829C19.8369 21.6071 20.5881 22.4902 21.7942 22.4902C22.0325 22.4902 22.2169 22.4687 22.3327 22.4431V21.1952H21.486C21.3675 21.1952 21.2719 21.0996 21.2719 20.9825V19.6229C21.2719 19.5058 21.3675 19.4089 21.486 19.4089H24.0463C24.1648 19.4089 24.2604 19.5058 24.2604 19.6229V23.6762H24.2631Z" fill="#030104"/>
</svg>
